<?xml version="1.0" encoding="UTF-8" standalone="no"?><!DOCTYPE svg PUBLIC "-//W3C//DTD SVG 1.1//EN" "http://www.w3.org/Graphics/SVG/1.1/DTD/svg11.dtd"><svg width="100%" height="100%" viewBox="0 0 35 35" version="1.1" xmlns="http://www.w3.org/2000/svg" xmlns:xlink="http://www.w3.org/1999/xlink" xml:space="preserve" xmlns:serif="http://www.serif.com/" style="fill-rule:evenodd;clip-rule:evenodd;stroke-linejoin:round;stroke-miterlimit:1.41421;"><path d="M34.653,30.47l-15.926,-27.586c-0.269,-0.464 -0.764,-0.75 -1.299,-0.75c-0.537,0 -1.031,0.286 -1.3,0.75l-15.926,27.586c-0.269,0.464 -0.269,1.036 0,1.5c0.269,0.464 0.763,0.75 1.299,0.75l31.853,0c0.535,0 1.031,-0.286 1.3,-0.75c0.267,-0.464 0.267,-1.036 -0.001,-1.5Z" style="fill:#f6c345;"/><path d="M4.099,29.72l13.328,-23.086l13.329,23.086l-26.657,0Z" style="fill:#f6c345;"/><rect x="15.427" y="11.677" width="4" height="11.833" style="fill:#fff;"/><rect x="15.427" y="25.507" width="4" height="2.919" style="fill:#fff;"/></svg>